name C:\Users\u0101727\Documents\MyRepositories\upper-imu-dc\Results\main_tracking\Case_41\FLX01_angularVelocities_bodyFrame.mot
datacolumns 4
datarows 141
range 3.51000000 4.91000000
endheader 
time	radius_imu_x	radius_imu_y	radius_imu_z	
          3.51000000	          0.02378053	          0.08305131	          0.08296688	
          3.52000000	          0.02917203	          0.08208684	          0.08043674	
          3.53000000	          0.03457034	          0.08131171	          0.07716925	
          3.54000000	          0.03980278	          0.08086305	          0.07328749	
          3.55000000	          0.04470743	          0.08084903	          0.06892249	
          3.56000000	          0.04914577	          0.08132025	          0.06421028	
          3.57000000	          0.05301399	          0.08224775	          0.05928983	
          3.58000000	          0.05625124	          0.08351152	          0.05430173	
          3.59000000	          0.05884398	          0.08490151	          0.04938733	
          3.60000000	          0.06082581	          0.08613153	          0.04468828	
          3.61000000	          0.06227319	          0.08686440	          0.04034622	
          3.62000000	          0.06329783	          0.08674418	          0.03650275	
          3.63000000	          0.06403702	          0.08542967	          0.03329939	
          3.64000000	          0.06464297	          0.08262369	          0.03087743	
          3.65000000	          0.06527210	          0.07809455	          0.02937753	
          3.66000000	          0.06607495	          0.07168860	          0.02893894	
          3.67000000	          0.06718743	          0.06333471	          0.02969809	
          3.68000000	          0.06872416	          0.05304324	          0.03178609	
          3.69000000	          0.07077471	          0.04090175	          0.03532522	
          3.70000000	          0.07340244	          0.02706809	          0.04042410	
          3.71000000	          0.07664509	          0.01176124	          0.04717224	
          3.72000000	          0.08051661	         -0.00474846	          0.05563534	
          3.73000000	          0.08500915	         -0.02214900	          0.06585194	
          3.74000000	          0.09009488	         -0.04009769	          0.07783212	
          3.75000000	          0.09572725	         -0.05823654	          0.09155778	
          3.76000000	          0.10184216	         -0.07621356	          0.10698471	
          3.77000000	          0.10835959	         -0.09370718	          0.12404606	
          3.78000000	          0.11518613	         -0.11044735	          0.14265698	
          3.79000000	          0.12221875	         -0.12622703	          0.16272001	
          3.80000000	          0.12934924	         -0.14090299	          0.18413056	
          3.81000000	          0.13646862	         -0.15438972	          0.20678226	
          3.82000000	          0.14347098	         -0.16665229	          0.23057161	
          3.83000000	          0.15025708	         -0.17770256	          0.25540193	
          3.84000000	          0.15673803	         -0.18759950	          0.28118600	
          3.85000000	          0.16283921	         -0.19645006	          0.30784743	
          3.86000000	          0.16850397	         -0.20440507	          0.33532057	
          3.87000000	          0.17369669	         -0.21164810	          0.36354935	
          3.88000000	          0.17840504	         -0.21837933	          0.39248528	
          3.89000000	          0.18264180	         -0.22479818	          0.42208497	
          3.90000000	          0.18644602	         -0.23108816	          0.45230790	
          3.91000000	          0.18988375	         -0.23740713	          0.48311497	
          3.92000000	          0.19304815	         -0.24388609	          0.51446851	
          3.93000000	          0.19605903	         -0.25063649	          0.54633297	
          3.94000000	          0.19906192	         -0.25776156	          0.57867504	
          3.95000000	          0.20222607	         -0.26536506	          0.61146209	
          3.96000000	          0.20574070	         -0.27355223	          0.64465890	
          3.97000000	          0.20980904	         -0.28242100	          0.67822296	
          3.98000000	          0.21464019	         -0.29204465	          0.71209898	
          3.99000000	          0.22043904	         -0.30245083	          0.74621321	
          4.00000000	          0.22739533	         -0.31360429	          0.78046804	
          4.01000000	          0.23567271	         -0.32540007	          0.81473773	
          4.02000000	          0.24539909	         -0.33767018	          0.84886582	
          4.03000000	          0.25665987	         -0.35020351	          0.88266476	
          4.04000000	          0.26949450	         -0.36277599	          0.91591744	
          4.05000000	          0.28389686	         -0.37518777	          0.94838010	
          4.06000000	          0.29981865	         -0.38730302	          0.97978649	
          4.07000000	          0.31717495	         -0.39908525	          1.00985331	
          4.08000000	          0.33585082	         -0.41061964	          1.03828745	
          4.09000000	          0.35570817	         -0.42211551	          1.06479543	
          4.10000000	          0.37659291	         -0.43388670	          1.08909485	
          4.11000000	          0.39834295	         -0.44631205	          1.11092723	
          4.12000000	          0.42079702	         -0.45978214	          1.13007073	
          4.13000000	          0.44380408	         -0.47464246	          1.14635129	
          4.14000000	          0.46723217	         -0.49114445	          1.15965103	
          4.15000000	          0.49097578	         -0.50941106	          1.16991344	
          4.16000000	          0.51496027	         -0.52941616	          1.17714494	
          4.17000000	          0.53914240	         -0.55097168	          1.18141295	
          4.18000000	          0.56350656	         -0.57371806	          1.18284086	
          4.19000000	          0.58805692	         -0.59712012	          1.18160146	
          4.20000000	          0.61280636	         -0.62047671	          1.17791027	
          4.21000000	          0.63776344	         -0.64295040	          1.17201945	
          4.22000000	          0.66291857	         -0.66361693	          1.16421184	
          4.23000000	          0.68823161	         -0.68152946	          1.15479412	
          4.24000000	          0.71362372	         -0.69579336	          1.14408841	
          4.25000000	          0.73897663	         -0.70565147	          1.13242244	
          4.26000000	          0.76414118	         -0.71057871	          1.12011857	
          4.27000000	          0.78895390	         -0.71037240	          1.10748154	
          4.28000000	          0.81325716	         -0.70521114	          1.09478560	
          4.29000000	          0.83691783	         -0.69566022	          1.08226273	
          4.30000000	          0.85984228	         -0.68262832	          1.07009492	
          4.31000000	          0.88198748	         -0.66729785	          1.05841177	
          4.32000000	          0.90336779	         -0.65104101	          1.04729178	
          4.33000000	          0.92405546	         -0.63531100	          1.03676439	
          4.34000000	          0.94417269	         -0.62149692	          1.02681093	
          4.35000000	          0.96387547	         -0.61075791	          1.01736510	
          4.36000000	          0.98333221	         -0.60387974	          1.00831634	
          4.37000000	          1.00270225	         -0.60119672	          0.99951949	
          4.38000000	          1.02211867	         -0.60259867	          0.99081157	
          4.39000000	          1.04167846	         -0.60761528	          0.98203314	
          4.40000000	          1.06144112	         -0.61554997	          0.97304902	
          4.41000000	          1.08143472	         -0.62562064	          0.96376357	
          4.42000000	          1.10166699	         -0.63705808	          0.95412720	
          4.43000000	          1.12213737	         -0.64912981	          0.94413388	
          4.44000000	          1.14284822	         -0.66110333	          0.93381258	
          4.45000000	          1.16381514	         -0.67220189	          0.92321735	
          4.46000000	          1.18507605	         -0.68160594	          0.91241937	
          4.47000000	          1.20669769	         -0.68852375	          0.90150107	
          4.48000000	          1.22877832	         -0.69232049	          0.89055104	
          4.49000000	          1.25144645	         -0.69266475	          0.87965754	
          4.50000000	          1.27485540	         -0.68963082	          0.86889886	
          4.51000000	          1.29917303	         -0.68370642	          0.85832964	
          4.52000000	          1.32456738	         -0.67570479	          0.84796479	
          4.53000000	          1.35118940	         -0.66662240	          0.83776406	
          4.54000000	          1.37915374	         -0.65748831	          0.82762150	
          4.55000000	          1.40851882	         -0.64923639	          0.81736255	
          4.56000000	          1.43927078	         -0.64262136	          0.80675451	
          4.57000000	          1.47130993	         -0.63818022	          0.79551731	
          4.58000000	          1.50444372	         -0.63621877	          0.78334719	
          4.59000000	          1.53838924	         -0.63679349	          0.76994141	
          4.60000000	          1.57277862	         -0.63969395	          0.75500905	
          4.61000000	          1.60717065	         -0.64445114	          0.73828327	
          4.62000000	          1.64107067	         -0.65039375	          0.71953396	
          4.63000000	          1.67395805	         -0.65674223	          0.69858230	
          4.64000000	          1.70531778	         -0.66270358	          0.67531569	
          4.65000000	          1.73467086	         -0.66753112	          0.64969953	
          4.66000000	          1.76160006	         -0.67054644	          0.62178267	
          4.67000000	          1.78576975	         -0.67114918	          0.59169610	
          4.68000000	          1.80693912	         -0.66883780	          0.55964589	
          4.69000000	          1.82496754	         -0.66324258	          0.52590258	
          4.70000000	          1.83981224	         -0.65415359	          0.49078846	
          4.71000000	          1.85151945	         -0.64152668	          0.45466375	
          4.72000000	          1.86021236	         -0.62546820	          0.41791287	
          4.73000000	          1.86607861	         -0.60621655	          0.38093236	
          4.74000000	          1.86935824	         -0.58413684	          0.34412224	
          4.75000000	          1.87032999	         -0.55972576	          0.30788188	
          4.76000000	          1.86929301	         -0.53360901	          0.27261031	
          4.77000000	          1.86654308	         -0.50651785	          0.23870968	
          4.78000000	          1.86234615	         -0.47924664	          0.20659030	
          4.79000000	          1.85691457	         -0.45260308	          0.17667503	
          4.80000000	          1.85039085	         -0.42736203	          0.14940122	
          4.81000000	          1.84284179	         -0.40422831	          0.12521860	
          4.82000000	          1.83426304	         -0.38381102	          0.10458300	
          4.83000000	          1.82459059	         -0.36660686	          0.08794659	
          4.84000000	          1.81371455	         -0.35298338	          0.07574623	
          4.85000000	          1.80149142	         -0.34315504	          0.06839128	
          4.86000000	          1.78775343	         -0.33715421	          0.06625196	
          4.87000000	          1.77231531	         -0.33480640	          0.06964895	
          4.88000000	          1.75497884	         -0.33571944	          0.07884456	
          4.89000000	          1.73553581	         -0.33929263	          0.09403543	
          4.90000000	          1.71377120	         -0.34475296	          0.11534683	
          4.91000000	          1.68946790	         -0.35122070	          0.14282798	
